<svg xmlns="http://www.w3.org/2000/svg" viewBox="0 0 633.02 165.37"><defs><style>.a,.b{fill:#13599c;}.a{fill-rule:evenodd;}</style></defs><title>Olectra-Colour</title><path class="a" d="M23,173.94l10.16-3.58c4.67-1.63,27.47-8.61,32.3-9.22,1.64,1.52,2.79,3,4.43,4.48a63.68,63.68,0,0,0,16,10.95,65.59,65.59,0,0,0,74.05-11.66l3.28-3.4a16.2,16.2,0,0,1,1.12-1.3c2.19-.18,18.61,5.12,21.49,6.1L205.55,174c-5-5.74-10-11.22-14.63-17-3.52-4.23-7-8.43-10.47-12.74q-1.89-2.34-3.76-4.74c-.75-1,.45-3.4,1-5.9a63.29,63.29,0,0,0-6.47-45.45,64.9,64.9,0,0,0-34.45-29c-9.94-3.6-8.45-.69-10.32-5.48l-11.7-35.86c-.34.85-3.91,11-4.14,11.63-2.25,6.37-6.17,16.7-8.83,22.79l-1.74,4.17c-.34.65-.37.56-1.28.77C81.74,61.26,66.06,73,57.91,88S47.26,119.65,52,136.45c.52,1.85.9,2,0,3C47.35,145.35,42.91,151.3,37.9,157c-2,2.26-5.4,6.47-7.38,8.56-.75.79-1.17,1.24-1.88,2Zm19.23-12.7-.3.21c-.08-.67-.08-.13.23-.35,10.07-11.45,23.43-29.63,31.66-42,14.06-21.17,27.65-49.18,37-73.33.57-1.48,1.14-2.87,1.72-4.38a38.11,38.11,0,0,1,1.72-4.34c1.13,2.65,2.14,6.26,3.14,9.06,1.08,3,2.15,5.94,3.32,8.87,8,19.92,13,30.41,23.88,48.84,6.09,10.26,13,19.84,19.62,28.92,3.4,4.67,11.66,15.49,16,20.52,1.86,2.15,3.68,4.41,5.42,6.55.33.33.25-.4.27.43l-.39-.27a38.49,38.49,0,0,1-4.12-1.25l-12.18-3.45c-32.85-8.66-59.78-9-93.33-2.33-10.79,2.13-19.2,4.24-29.53,7.18A31.57,31.57,0,0,1,42.22,161.24Z" transform="translate(-22.99 -17.82)"/><path class="a" d="M223.13,110V96.16c0-8.57,2-16.25,6.38-20.62A20.41,20.41,0,0,1,237.45,70a30.68,30.68,0,0,1,11.23-2.26h37.6c7.22,0,14.24,3,18,6.61a26,26,0,0,1,7.1,17.49V114c0,7.15-3.54,14.2-7.34,17.73s-10.95,6.37-18.21,6.37H248.68a30.68,30.68,0,0,1-11.23-2.26c-11.53-4.9-13.91-14.82-14.32-25.8M281,119.78h-24.1c-15.93,0-13.5-5.92-13.5-23.62,0-6.59,2-10.6,8.67-10.6h30.37c10.94,0,9.16,10.08,9.16,20.73C291.58,115.3,290.12,119.78,281,119.78Z" transform="translate(-22.99 -17.82)"/><path class="a" d="M596.72,98.09c5.11,0,36.81-.43,39.17.36,1.18.4,1.77.34,2.19,2.63l.1,12-2.06-4.2c-.61-1.45-1.07-4-2.76-4h-21.7c-5.12,0-9.69.45-12.43,3-4.16,3.86-4,9.6-4,15.33,0,8.32,2.77,14.94,11.09,14.94h47.72a1.85,1.85,0,0,0,1.93-1.93v-41c0-5.6-3.1-10.13-8.67-10.13H596.72Zm15.91,23.62c0-7.81-2.19-5.78,25.55-5.78v8.67H614.56C613.07,124.6,612.63,123.19,612.63,121.71Z" transform="translate(-22.99 -17.82)"/><path class="a" d="M344.61,106.29c0,8.75-1.13,19.78,4.93,25.92a14.48,14.48,0,0,0,5.93,4.19,22.31,22.31,0,0,0,8.42,1.7h43.39V123.64h-40c-6.28,0-4.83-9.17-4.83-15.43,2.31,1.69,1.75,7.72,4.34,7.72H398.6c12.08,0,10.61-20.85,7.74-26.54a8.1,8.1,0,0,0-7.26-4.32H363.41c-12.38,0-18.8,8.72-18.8,21.22m44.83-1.45h-27c0-10,9.13-7.71,24.11-7.71,5.67,0,4.82,1.13,4.82,5.78A1.85,1.85,0,0,1,389.44,104.84Z" transform="translate(-22.99 -17.82)"/><path class="a" d="M414,109.18c0,8-.23,16.63,4.26,22.26,2.89,3.62,8.63,6.66,15,6.66h43.39V122.19H437.64c-7,0-5.78-7.54-5.78-14.46,0-5.35,1.41-8.68,6.75-8.68h21.21l.3,0h17.63c.06-2-.1-5.61-.1-12.07a1.85,1.85,0,0,0-1.92-1.93H432.82a18.67,18.67,0,0,0-14.54,6.67C415,95.78,414,102,414,109.18" transform="translate(-22.99 -17.82)"/><path class="a" d="M492.6,85.07H481c.05,2.18,1.69,5.57,2.34,7.31,2.75,7.39.84,6.19,9.23,6.19V138.1h17.83V98.57h14.95V85.07H510.43V67.72H492.6Z" transform="translate(-22.99 -17.82)"/><path class="a" d="M530.68,99.05V138.1H548V105.8c0-3.54.25-6.75,3.86-6.75H573.1c2.22,0,1.45,2.72,1.45,8.2,2,0,2.5-.49,4.13-1.17l12.26-4.62c0-3,0-6.1,0-9.16,0-2.67.65-7.23-1.93-7.23h-45.8c-7.74,0-12.53,6.17-12.53,14" transform="translate(-22.99 -17.82)"/><rect class="b" x="296.07" y="45.08" width="17.84" height="75.2"/></svg>