<svg width="63" height="24" viewBox="0 0 63 24" fill="none" xmlns="http://www.w3.org/2000/svg">
<path d="M35.4314 1.56861V4.56732H39.5324V0.466309L36.5337 0.466309C35.9249 0.466309 35.4314 0.959827 35.4314 1.56861Z" fill="#17B26A"/>
<path d="M43.7349 1.56861V4.56732H47.8359V0.466309L44.8372 0.466309C44.2284 0.466309 43.7349 0.959827 43.7349 1.56861Z" fill="#0061FE"/>
<path d="M25.6909 23.4849V14.6678C25.6909 11.8366 27.986 9.5415 30.8172 9.5415H32.6626" stroke="#252B37" stroke-width="4.30606"/>
<path d="M55.1572 23.5338V6.71967C55.1572 4.45474 56.9933 2.61865 59.2582 2.61865H62.1289" stroke="#252B37" stroke-width="4.30606"/>
<path d="M37.5254 23.485V7.3877" stroke="#252B37" stroke-width="4.30606"/>
<path d="M45.7263 23.485V7.3877" stroke="#252B37" stroke-width="4.30606"/>
<path d="M50.7513 9.38477H62.1316" stroke="#252B37" stroke-width="4.30606"/>
<path d="M0 2.61865H9.12475C14.051 2.61865 18.0445 6.61214 18.0445 11.5384V12.3586C18.0445 17.2848 14.051 21.2783 9.12475 21.2783H0" stroke="#252B37" stroke-width="4.30606"/>
</svg>
