<svg version="1.2" xmlns="http://www.w3.org/2000/svg" viewBox="0 0 183 166" width="183" height="166">
	<title>logo</title>
	<style>
		.s0 { fill: #13599c } 
	</style>
	<path fillRule="evenodd" class="s0" d="m5.7 149.7c0.7-0.7 1.1-1.2 1.8-2 2-2 5.4-6.3 7.4-8.5 5-5.7 9.5-11.7 14.1-17.6 0.9-1 0.5-1.1 0-3-4.7-16.8-2.2-33.4 5.9-48.4 8.2-15 23.8-26.8 40.9-30.8 0.9-0.2 0.9-0.2 1.3-0.8l1.7-4.2c2.7-6.1 6.6-16.4 8.8-22.8 0.3-0.6 3.8-10.7 4.2-11.6l11.7 35.9c1.8 4.8 0.3 1.8 10.3 5.4q5.4 2 10.4 4.9 5 2.9 9.4 6.6 4.4 3.7 8.1 8.1 3.7 4.4 6.5 9.4 2.9 5.2 4.8 10.8 1.9 5.5 2.7 11.4 0.9 5.8 0.6 11.7-0.3 5.9-1.6 11.6c-0.5 2.5-1.7 4.9-1 5.9q1.9 2.4 3.8 4.7c3.4 4.4 6.9 8.6 10.4 12.8 4.7 5.8 9.7 11.2 14.7 17l-19.8-7.7c-2.8-1-19.3-6.3-21.5-6.1q-0.1 0.1-0.2 0.3-0.2 0.2-0.3 0.3-0.2 0.2-0.3 0.4-0.1 0.1-0.3 0.3l-3.3 3.4c-4.8 4.6-10.2 8.5-16.2 11.4-6 3-12.4 5-18.9 6-6.6 1.1-13.3 1.1-19.9 0.1-6.6-1-13-2.9-19-5.9q-2.2-1-4.3-2.2-2.1-1.2-4.1-2.6-2-1.4-3.9-2.9-1.9-1.5-3.7-3.2c-1.6-1.5-2.8-3-4.4-4.5-4.9 0.6-27.7 7.6-32.3 9.2l-10.2 3.6zm14.6-6.5q0.6-0.1 1.1-0.3 0.5-0.1 1-0.3 0.5-0.1 1-0.3c10.4-3 18.8-5.1 29.6-7.2 33.5-6.7 60.4-6.3 93.3 2.3l12.2 3.5q0.5 0.2 1 0.3 0.5 0.2 1 0.4 0.5 0.1 1 0.3 0.6 0.1 1.1 0.2l0.4 0.3c0-0.8 0-0.1-0.3-0.4-1.7-2.2-3.5-4.4-5.4-6.6-4.4-5-12.6-15.8-16-20.5-6.6-9.1-13.5-18.7-19.6-28.9-10.9-18.4-15.9-28.9-23.9-48.9-1.2-2.9-2.2-5.8-3.3-8.8-1-2.8-2-6.4-3.2-9.1q-0.2 0.5-0.4 1.1-0.3 0.5-0.5 1.1-0.2 0.5-0.4 1-0.2 0.6-0.4 1.2c-0.6 1.5-1.1 2.9-1.7 4.3-9.4 24.2-22.9 52.2-37 73.4-8.2 12.3-21.6 30.5-31.7 42-0.3 0.2-0.3-0.4-0.2 0.3l0.3-0.2q0.5-0.1 1-0.2z"/>
</svg>