<svg width="172" height="48" viewBox="0 0 172 48" fill="none" xmlns="http://www.w3.org/2000/svg">
<path d="M14.25 0C14.25 7.87006 7.87006 14.25 0 14.25V23.75H14.25V38H23.75C23.75 30.1299 30.1299 23.75 38 23.75V14.25H23.75V0H14.25Z" fill="white"/>
<path d="M61.2247 35.3207C59.7993 35.3207 58.472 35.0624 57.2426 34.5457C56.031 34.029 54.9709 33.3074 54.0623 32.3809C53.1536 31.4544 52.4409 30.3676 51.9242 29.1204C51.4254 27.8732 51.1759 26.5102 51.1759 25.0314C51.1759 23.5526 51.4254 22.1896 51.9242 20.9424C52.4231 19.6774 53.1269 18.5906 54.0355 17.6819C54.9442 16.7554 56.0043 16.0428 57.2159 15.5439C58.4452 15.0272 59.7815 14.7689 61.2247 14.7689C62.6679 14.7689 63.9596 15.0094 65.0999 15.4904C66.258 15.9715 67.2379 16.6129 68.0397 17.4147C68.8414 18.2164 69.4116 19.1073 69.7501 20.0872L66.0887 21.8511C65.7502 20.889 65.1533 20.0961 64.2981 19.4725C63.4607 18.8311 62.4362 18.5104 61.2247 18.5104C60.0488 18.5104 59.0154 18.7866 58.1245 19.3389C57.2337 19.8912 56.5388 20.6574 56.0399 21.6373C55.5589 22.5994 55.3184 23.7308 55.3184 25.0314C55.3184 26.3321 55.5589 27.4723 56.0399 28.4523C56.5388 29.4322 57.2337 30.1983 58.1245 30.7507C59.0154 31.303 60.0488 31.5791 61.2247 31.5791C62.4362 31.5791 63.4607 31.2673 64.2981 30.6438C65.1533 30.0023 65.7502 29.2006 66.0887 28.2385L69.7501 30.0023C69.4116 30.9823 68.8414 31.8731 68.0397 32.6749C67.2379 33.4767 66.258 34.1181 65.0999 34.5991C63.9596 35.0802 62.6679 35.3207 61.2247 35.3207ZM79.0958 35.3207C77.6527 35.3207 76.3342 34.9911 75.1405 34.3319C73.9646 33.6726 73.0203 32.7729 72.3076 31.6326C71.6127 30.4745 71.2653 29.1649 71.2653 27.704C71.2653 26.2252 71.6127 24.9156 72.3076 23.7753C73.0203 22.635 73.9646 21.7353 75.1405 21.0761C76.3342 20.4168 77.6527 20.0872 79.0958 20.0872C80.539 20.0872 81.8486 20.4168 83.0245 21.0761C84.2004 21.7353 85.1358 22.635 85.8306 23.7753C86.5433 24.9156 86.8997 26.2252 86.8997 27.704C86.8997 29.1649 86.5433 30.4745 85.8306 31.6326C85.1358 32.7729 84.2004 33.6726 83.0245 34.3319C81.8486 34.9911 80.539 35.3207 79.0958 35.3207ZM79.0958 31.7128C79.8263 31.7128 80.4588 31.5435 80.9933 31.205C81.5457 30.8665 81.9733 30.3943 82.2762 29.7885C82.5969 29.1828 82.7572 28.4879 82.7572 27.704C82.7572 26.92 82.5969 26.2341 82.2762 25.6461C81.9733 25.0403 81.5457 24.5682 80.9933 24.2297C80.4588 23.8733 79.8263 23.6951 79.0958 23.6951C78.3653 23.6951 77.7239 23.8733 77.1716 24.2297C76.6193 24.5682 76.1828 25.0403 75.8621 25.6461C75.5592 26.2341 75.4077 26.92 75.4077 27.704C75.4077 28.4879 75.5592 29.1828 75.8621 29.7885C76.1828 30.3943 76.6193 30.8665 77.1716 31.205C77.7239 31.5435 78.3653 31.7128 79.0958 31.7128ZM93.5704 35L87.8244 20.4079H92.1539L96.136 31.4455H94.479L98.4611 20.4079H102.791L97.0447 35H93.5704ZM104.555 35V20.4079H108.297V23.9089L108.03 23.4012C108.35 22.1718 108.876 21.3433 109.606 20.9157C110.355 20.4703 111.237 20.2476 112.252 20.2476H113.107V23.7219H111.851C110.871 23.7219 110.079 24.0248 109.473 24.6305C108.867 25.2185 108.564 26.0559 108.564 27.1427V35H104.555ZM114.864 35V20.4079H118.606V23.9089L118.339 23.4012C118.659 22.1718 119.185 21.3433 119.916 20.9157C120.664 20.4703 121.546 20.2476 122.561 20.2476H123.417V23.7219H122.161C121.181 23.7219 120.388 24.0248 119.782 24.6305C119.176 25.2185 118.873 26.0559 118.873 27.1427V35H114.864Z" fill="white"/>
</svg>
