<svg width="165" height="48" viewBox="0 0 165 48" fill="none" xmlns="http://www.w3.org/2000/svg">
<g opacity="0.84">
<path d="M-0.00213623 17.8433L30.9033 0L30.0844 12.6994L3.76383 27.8955L-0.00213623 17.8433Z" fill="white"/>
<path opacity="0.5" d="M3.76367 27.8948L25.4994 15.3457L24.6805 28.0451L7.52964 37.9471L3.76367 27.8948Z" fill="white"/>
<path opacity="0.25" d="M7.52734 37.9478L20.0933 30.6929L19.2744 43.3922L11.2933 48.0001L7.52734 37.9478Z" fill="white"/>
</g>
<path d="M44.7639 35V15.0896H58.3938V18.6975H48.9063V23.7486H57.0576V27.3565H48.9063V35H44.7639ZM60.1554 35V14.7689H64.1642V35H60.1554ZM74.1266 35.3207C72.5765 35.3207 71.2313 34.9822 70.091 34.3051C68.9507 33.6103 68.0688 32.6838 67.4452 31.5257C66.8216 30.3676 66.5098 29.0848 66.5098 27.6772C66.5098 26.2162 66.8305 24.9156 67.4719 23.7753C68.1312 22.635 69.0131 21.7353 70.1177 21.0761C71.2224 20.4168 72.4696 20.0872 73.8593 20.0872C75.0174 20.0872 76.0419 20.2743 76.9327 20.6484C77.8236 21.0048 78.5719 21.5126 79.1777 22.1718C79.8013 22.831 80.2734 23.5972 80.5941 24.4702C80.9148 25.3254 81.0752 26.2608 81.0752 27.2764C81.0752 27.5614 81.0573 27.8465 81.0217 28.1316C81.0039 28.3988 80.9594 28.6304 80.8881 28.8264H69.9574V25.8866H78.6164L76.7189 27.2764C76.8971 26.5102 76.8882 25.8332 76.6922 25.2452C76.4962 24.6394 76.1488 24.1673 75.6499 23.8288C75.1688 23.4724 74.572 23.2943 73.8593 23.2943C73.1644 23.2943 72.5676 23.4635 72.0687 23.802C71.5698 24.1406 71.1957 24.6394 70.9462 25.2987C70.6968 25.9579 70.5988 26.7597 70.6523 27.704C70.581 28.5235 70.679 29.2451 70.9462 29.8687C71.2135 30.4923 71.6233 30.9823 72.1756 31.3386C72.7279 31.6771 73.3961 31.8464 74.18 31.8464C74.8927 31.8464 75.4985 31.7039 75.9973 31.4188C76.514 31.1337 76.9149 30.7417 77.2 30.2429L80.407 31.7662C80.122 32.4789 79.6676 33.1025 79.044 33.637C78.4383 34.1715 77.7167 34.5902 76.8793 34.8931C76.0419 35.1782 75.1243 35.3207 74.1266 35.3207ZM82.0256 35L87.1301 27.6772L81.9989 20.4079H86.6491L90.4975 26.0737H88.4664L92.3149 20.4079H96.9651L91.8338 27.6772L96.9116 35H92.2882L88.5199 29.3342H90.4441L86.6758 35H82.0256Z" fill="white"/>
</svg>
