<svg width="178" height="48" viewBox="0 0 178 48" fill="none" xmlns="http://www.w3.org/2000/svg">
<g opacity="0.84">
<path d="M30.8 10.7998H0L4.4 19.5997H30.8C35.6601 19.5997 39.6 23.5396 39.6 28.3997C39.6 33.2598 35.6601 37.1996 30.8 37.1996C38.0902 37.1996 44 31.2898 44 23.9997C44 16.7096 38.0902 10.7998 30.8 10.7998Z" fill="white"/>
<path opacity="0.3" d="M20.7835 34.7676C19.3207 31.8421 21.4481 28.3999 24.7189 28.3999H30.7996C33.2297 28.3999 35.1996 30.3698 35.1996 32.7999C35.1996 35.2299 33.2297 37.1998 30.7996 37.1998H24.7189C23.0524 37.1998 21.5288 36.2582 20.7835 34.7676Z" fill="white"/>
<path opacity="0.6" d="M30.8008 19.6001H8.80078L13.2008 28.4H30.8008C33.2308 28.4 35.2008 30.37 35.2008 32.8C35.2008 35.2301 33.2308 37.2 30.8008 37.2C35.6609 37.2 39.6008 33.2601 39.6008 28.4C39.6008 23.54 35.6609 19.6001 30.8008 19.6001Z" fill="white"/>
</g>
<path d="M57.7639 35V15.0896H65.4073C66.7793 15.0896 67.9908 15.3301 69.042 15.8111C70.111 16.2922 70.9484 17.0049 71.5542 17.9492C72.16 18.8935 72.4629 20.0605 72.4629 21.4502C72.4629 22.8043 72.1511 23.9535 71.5275 24.8978C70.9217 25.8421 70.0843 26.5637 69.0153 27.0625C67.9641 27.5436 66.7614 27.7841 65.4073 27.7841H61.9063V35H57.7639ZM61.9063 24.1762H65.4341C66.022 24.1762 66.5298 24.0604 66.9574 23.8288C67.385 23.5972 67.7146 23.2764 67.9463 22.8667C68.1957 22.4569 68.3204 21.9847 68.3204 21.4502C68.3204 20.8979 68.1957 20.4168 67.9463 20.007C67.7146 19.5972 67.385 19.2765 66.9574 19.0449C66.5298 18.8133 66.022 18.6975 65.4341 18.6975H61.9063V24.1762ZM74.8258 35V20.4079H78.5673V23.9089L78.3001 23.4012C78.6208 22.1718 79.1464 21.3433 79.8769 20.9157C80.6252 20.4703 81.5071 20.2476 82.5227 20.2476H83.3779V23.7219H82.1218C81.1419 23.7219 80.349 24.0248 79.7432 24.6305C79.1375 25.2185 78.8346 26.0559 78.8346 27.1427V35H74.8258ZM92.3775 35.3207C90.9343 35.3207 89.6159 34.9911 88.4221 34.3319C87.2462 33.6726 86.3019 32.7729 85.5892 31.6326C84.8944 30.4745 84.5469 29.1649 84.5469 27.704C84.5469 26.2252 84.8944 24.9156 85.5892 23.7753C86.3019 22.635 87.2462 21.7353 88.4221 21.0761C89.6159 20.4168 90.9343 20.0872 92.3775 20.0872C93.8206 20.0872 95.1302 20.4168 96.3061 21.0761C97.482 21.7353 98.4174 22.635 99.1123 23.7753C99.825 24.9156 100.181 26.2252 100.181 27.704C100.181 29.1649 99.825 30.4745 99.1123 31.6326C98.4174 32.7729 97.482 33.6726 96.3061 34.3319C95.1302 34.9911 93.8206 35.3207 92.3775 35.3207ZM92.3775 31.7128C93.108 31.7128 93.7405 31.5435 94.275 31.205C94.8273 30.8665 95.2549 30.3943 95.5578 29.7885C95.8785 29.1828 96.0389 28.4879 96.0389 27.704C96.0389 26.92 95.8785 26.2341 95.5578 25.6461C95.2549 25.0403 94.8273 24.5682 94.275 24.2297C93.7405 23.8733 93.108 23.6951 92.3775 23.6951C91.647 23.6951 91.0056 23.8733 90.4532 24.2297C89.9009 24.5682 89.4644 25.0403 89.1437 25.6461C88.8408 26.2341 88.6894 26.92 88.6894 27.704C88.6894 28.4879 88.8408 29.1828 89.1437 29.7885C89.4644 30.3943 89.9009 30.8665 90.4532 31.205C91.0056 31.5435 91.647 31.7128 92.3775 31.7128ZM102.543 40.3451V20.4079H106.285V23.1874L105.937 22.3856C106.418 21.6551 107.068 21.0939 107.888 20.7019C108.725 20.2921 109.679 20.0872 110.748 20.0872C112.137 20.0872 113.393 20.4257 114.516 21.1028C115.638 21.7798 116.529 22.6974 117.188 23.8555C117.848 24.9958 118.177 26.2786 118.177 27.704C118.177 29.1115 117.848 30.3943 117.188 31.5524C116.547 32.7105 115.665 33.6281 114.543 34.3051C113.42 34.9822 112.146 35.3207 110.721 35.3207C109.723 35.3207 108.797 35.1425 107.941 34.7862C107.104 34.412 106.427 33.8686 105.91 33.1559L106.552 32.3275V40.3451H102.543ZM110.24 31.7128C110.988 31.7128 111.647 31.5435 112.218 31.205C112.788 30.8665 113.233 30.3943 113.554 29.7885C113.875 29.1828 114.035 28.4879 114.035 27.704C114.035 26.92 113.875 26.2341 113.554 25.6461C113.233 25.0403 112.788 24.5682 112.218 24.2297C111.647 23.8733 110.988 23.6951 110.24 23.6951C109.527 23.6951 108.886 23.8644 108.316 24.2029C107.763 24.5415 107.327 25.0136 107.006 25.6194C106.703 26.2252 106.552 26.92 106.552 27.704C106.552 28.4879 106.703 29.1828 107.006 29.7885C107.327 30.3943 107.763 30.8665 108.316 31.205C108.886 31.5435 109.527 31.7128 110.24 31.7128ZM127.554 35.3207C126.004 35.3207 124.659 34.9822 123.518 34.3051C122.378 33.6103 121.496 32.6838 120.873 31.5257C120.249 30.3676 119.937 29.0848 119.937 27.6772C119.937 26.2162 120.258 24.9156 120.899 23.7753C121.559 22.635 122.441 21.7353 123.545 21.0761C124.65 20.4168 125.897 20.0872 127.287 20.0872C128.445 20.0872 129.469 20.2743 130.36 20.6484C131.251 21.0048 131.999 21.5126 132.605 22.1718C133.229 22.831 133.701 23.5972 134.022 24.4702C134.342 25.3254 134.503 26.2608 134.503 27.2764C134.503 27.5614 134.485 27.8465 134.449 28.1316C134.431 28.3988 134.387 28.6304 134.316 28.8264H123.385V25.8866H132.044L130.146 27.2764C130.325 26.5102 130.316 25.8332 130.12 25.2452C129.924 24.6394 129.576 24.1673 129.077 23.8288C128.596 23.4724 127.999 23.2943 127.287 23.2943C126.592 23.2943 125.995 23.4635 125.496 23.802C124.997 24.1406 124.623 24.6394 124.374 25.2987C124.124 25.9579 124.026 26.7597 124.08 27.704C124.008 28.5235 124.106 29.2451 124.374 29.8687C124.641 30.4923 125.051 30.9823 125.603 31.3386C126.155 31.6771 126.823 31.8464 127.607 31.8464C128.32 31.8464 128.926 31.7039 129.425 31.4188C129.941 31.1337 130.342 30.7417 130.627 30.2429L133.834 31.7662C133.549 32.4789 133.095 33.1025 132.471 33.637C131.866 34.1715 131.144 34.5902 130.307 34.8931C129.469 35.1782 128.552 35.3207 127.554 35.3207ZM136.863 35V14.7689H140.872V35H136.863Z" fill="white"/>
</svg>
