<svg width="174" height="48" viewBox="0 0 174 48" fill="none" xmlns="http://www.w3.org/2000/svg">
<path d="M23.4538 34.7191C20.272 33.5373 16.9994 33.3555 13.9994 34.1737C11.9085 34.7191 9.90858 35.81 8.09043 37.1736L6.8177 38.2645L6.45408 38.6281L7.27224 39.3554C7.36315 39.3554 7.36316 39.4463 7.45407 39.5372C7.63588 39.719 7.81771 39.8099 8.09043 39.9918L8.63585 40.3554L9.1813 39.9008C9.27221 39.8099 9.45403 39.6281 9.63584 39.5372C11.2722 38.1736 13.0903 37.2645 14.9994 36.81C17.4539 36.1736 20.0902 36.2646 22.7265 37.2645C24.9083 38.0827 29.3628 39.0827 34.7263 36.81L34.9081 36.7191L35.1809 36.4464C35.1809 36.3555 35.2718 36.3555 35.3627 36.2645C35.8172 35.7191 36.2718 35.1737 36.6354 34.5373L38.4535 31.7192L35.5445 33.3555C31.2718 35.7191 27.3628 36.1736 23.4538 34.7191Z" fill="white"/>
<path d="M10.9998 24.9014C13.4543 24.265 16.0906 24.3559 18.727 25.3559C21.636 26.4468 29.0904 27.9922 37.4539 20.4469L39.2721 18.6288L39.0902 18.1742C38.9993 17.8106 38.8175 17.3561 38.6357 16.9015L38.1812 15.6288L37.2721 16.5379C37.1812 16.7197 36.9994 16.8106 36.8175 16.9924C32.8176 21.0833 26.6359 25.265 19.5451 22.7196C16.3634 21.5378 13.0907 21.356 10.0907 22.1742C7.1817 22.9923 4.63628 24.5378 2.27269 26.7195V26.6286L0.909076 28.0831C0.909076 28.1741 0.818185 28.1741 0.727278 28.265L0.454538 28.5377L0.545451 28.9013C0.636359 29.3558 0.818168 29.8104 0.909076 30.2649L1.45453 31.7194L2.3636 30.5377C2.45451 30.3558 2.63632 30.2649 2.72723 30.0831C4.63628 28.3559 7.27261 25.9014 10.9998 24.9014Z" fill="white"/>
<path d="M2.1818 23.2648C4.27268 21.0831 6.63625 19.7194 9.18167 18.9922C11.6362 18.3558 14.2725 18.4467 16.9088 19.4467C25.0905 22.4467 32.1813 17.5377 35.2721 14.9013L36.4539 13.7195L36.9085 13.3559L36.5448 12.8105C36.2721 12.5377 36.0903 12.1741 35.8176 11.8105L35.2721 11.0832L34.6358 11.7196C34.5449 11.8105 34.3631 11.9923 34.2721 12.0832C30.454 15.7195 24.545 19.4467 17.8179 16.9013C14.6361 15.7195 11.3635 15.5377 8.3635 16.3559C6.45444 16.9013 4.63629 17.8104 2.81814 18.9922L0.909075 20.5376C0.72726 20.7194 0.636353 20.8103 0.454538 20.9921L0.272739 21.1739V21.4467C0.181832 22.083 0.181821 22.7194 0.0909131 23.2648L0 25.5375L1.54544 23.9012C1.72725 23.7194 1.90908 23.4467 2.1818 23.2648Z" fill="white"/>
<path d="M26.0908 40.9009C25.8181 40.81 25.6363 40.7191 25.3636 40.6282C22.1818 39.4464 18.9091 39.2646 15.9091 40.0828C15.2728 40.2646 14.6365 40.4464 14.0001 40.7191L11.8183 41.7191L11.2729 41.9918L13.091 42.6282C13.6365 42.81 14.1819 42.9918 14.7274 43.1736L15.0001 43.2645L15.2728 43.1736C15.5455 43.0827 15.8183 42.9009 16.091 42.9009C16.2728 42.9009 16.4546 42.81 16.6364 42.7191C18.8182 42.1736 21.1818 42.1736 23.7272 42.9918C23.9999 43.0827 24.1818 43.1736 24.4545 43.2645L24.909 43.4463L25.1817 43.3554C25.8181 43.1736 26.5453 42.9918 27.0908 42.7191L29.6362 41.81L26.9999 41.1736C26.7272 41.0827 26.3635 40.9918 26.0908 40.9009Z" fill="white"/>
<path d="M40 22.0831L38.6364 23.4467C38.4546 23.6285 38.2728 23.8104 38.091 23.9922C34.3638 27.5376 28.3639 31.3557 21.6367 28.8103C18.4549 27.6285 15.1823 27.4467 12.1823 28.2648C9.36419 29.083 6.81876 30.5375 4.54607 32.7193L3.36428 33.992L3.00066 34.4465L3.36428 34.992C3.63701 35.3556 3.81883 35.6283 4.00065 35.992L4.54607 36.8101L5.18243 35.992C5.27334 35.9011 5.45515 35.7192 5.54606 35.6283C7.72784 33.2647 10.0914 31.8102 12.8187 31.0829C15.2732 30.4466 17.9095 30.5375 20.5458 31.5375C22.8185 32.3556 25.1821 32.6284 27.5457 32.3557C31.7274 31.9011 35.9092 29.5375 39 26.9012C39.1819 26.7194 39.3636 26.6285 39.5455 26.4467L39.8182 26.1739V25.9012C39.8182 25.3558 39.9091 24.7194 39.9091 24.174L40 22.0831Z" fill="white"/>
<path d="M5.45373 13.7198C5.99918 13.4471 6.63555 13.2652 7.18099 13.0834C9.6355 12.4471 12.2718 12.538 14.9081 13.538C16.6354 14.1743 18.3626 14.447 20.2717 14.447C24.0898 14.447 27.9079 13.0834 31.4533 10.4471L33.2714 8.9926L32.4533 8.35623C32.1805 8.08351 31.8169 7.8108 31.4533 7.62898L30.9078 7.26536L30.4533 7.62898C30.2715 7.71989 30.1806 7.9017 29.9988 7.99261C25.1807 11.6289 20.3626 12.6289 15.8172 10.9017C12.5445 9.71986 9.27185 9.44714 5.99918 10.4471C5.72646 10.538 5.45374 10.6289 5.09011 10.7198L4.90831 10.8107L4.63557 11.0835C4.63557 11.1744 4.54468 11.1744 4.45377 11.2653C4.09014 11.8107 3.63559 12.2653 3.27196 12.8107L1.54472 15.447L4.36286 13.9925C4.81739 13.9925 5.18101 13.8107 5.45373 13.7198Z" fill="white"/>
<path d="M12.9089 7.53793L13.1816 7.62884C14.3634 8.08338 16.1816 8.53792 18.4542 8.53792C20.8178 8.53792 23.0905 7.99247 25.3632 7.08339L28.1813 5.71978L26.2723 5.08344C25.7269 4.90163 25.1814 4.71981 24.545 4.62891H24.2723L23.9996 4.71979C23.7269 4.8107 23.4541 4.99254 23.1814 5.08344C20.4542 6.08343 17.727 6.26524 15.0907 5.53798C14.8179 5.44707 14.5452 5.35615 14.2725 5.26524L13.9998 5.17433L13.727 5.26524C13.1816 5.44706 12.6362 5.62888 12.0907 5.90161L9.99983 6.81068L12.1816 7.44702C12.3634 7.35611 12.6362 7.44702 12.9089 7.53793Z" fill="white"/>
<path d="M57.5054 35L52.294 15.0896H56.7839L60.7125 31.7662H59.5098L63.6523 15.0896H67.9284L72.0708 31.7662H70.8681L74.7968 15.0896H79.2867L74.0752 35H69.2646L65.0955 18.9647H66.4852L62.316 35H57.5054ZM84.5031 35.3207C83.4519 35.3207 82.5433 35.1514 81.7771 34.8129C81.011 34.4744 80.423 33.9933 80.0133 33.3697C79.6035 32.7283 79.3986 31.9711 79.3986 31.0981C79.3986 30.2785 79.5856 29.5569 79.9598 28.9333C80.334 28.2919 80.9041 27.7574 81.6702 27.3298C82.4542 26.9022 83.4252 26.5993 84.5833 26.4211L89.0464 25.6996V28.6393L85.3049 29.3075C84.7347 29.4144 84.2982 29.6015 83.9953 29.8687C83.6925 30.1182 83.541 30.4834 83.541 30.9645C83.541 31.4099 83.7103 31.7573 84.0488 32.0068C84.3873 32.2562 84.806 32.3809 85.3049 32.3809C85.9641 32.3809 86.5432 32.2384 87.042 31.9533C87.5409 31.6682 87.924 31.2852 88.1912 30.8041C88.4763 30.3052 88.6188 29.7618 88.6188 29.1739V25.3788C88.6188 24.8265 88.3961 24.3633 87.9507 23.9891C87.5231 23.615 86.9351 23.4279 86.1868 23.4279C85.4741 23.4279 84.8416 23.6239 84.2893 24.0159C83.7548 24.4078 83.3628 24.9245 83.1134 25.5659L79.9064 24.0426C80.1914 23.223 80.6458 22.5192 81.2693 21.9313C81.8929 21.3433 82.6413 20.889 83.5143 20.5683C84.3873 20.2476 85.3405 20.0872 86.3739 20.0872C87.6033 20.0872 88.6901 20.3099 89.6344 20.7553C90.5787 21.2008 91.3092 21.8244 91.8259 22.6261C92.3604 23.4101 92.6277 24.3276 92.6277 25.3788V35H88.8861V32.6482L89.7948 32.4878C89.3672 33.1292 88.895 33.6637 88.3783 34.0913C87.8616 34.5011 87.2826 34.804 86.6412 35C85.9997 35.2138 85.2871 35.3207 84.5031 35.3207ZM99.8767 35L94.1307 20.4079H98.4603L102.442 31.4455H100.785L104.767 20.4079H109.097L103.351 35H99.8767ZM117.629 35.3207C116.079 35.3207 114.734 34.9822 113.594 34.3051C112.454 33.6103 111.572 32.6838 110.948 31.5257C110.325 30.3676 110.013 29.0848 110.013 27.6772C110.013 26.2162 110.333 24.9156 110.975 23.7753C111.634 22.635 112.516 21.7353 113.621 21.0761C114.725 20.4168 115.973 20.0872 117.362 20.0872C118.52 20.0872 119.545 20.2743 120.436 20.6484C121.327 21.0048 122.075 21.5126 122.681 22.1718C123.304 22.831 123.776 23.5972 124.097 24.4702C124.418 25.3254 124.578 26.2608 124.578 27.2764C124.578 27.5614 124.56 27.8465 124.525 28.1316C124.507 28.3988 124.462 28.6304 124.391 28.8264H113.46V25.8866H122.119L120.222 27.2764C120.4 26.5102 120.391 25.8332 120.195 25.2452C119.999 24.6394 119.652 24.1673 119.153 23.8288C118.672 23.4724 118.075 23.2943 117.362 23.2943C116.667 23.2943 116.071 23.4635 115.572 23.802C115.073 24.1406 114.699 24.6394 114.449 25.2987C114.2 25.9579 114.102 26.7597 114.155 27.704C114.084 28.5235 114.182 29.2451 114.449 29.8687C114.716 30.4923 115.126 30.9823 115.679 31.3386C116.231 31.6771 116.899 31.8464 117.683 31.8464C118.396 31.8464 119.001 31.7039 119.5 31.4188C120.017 31.1337 120.418 30.7417 120.703 30.2429L123.91 31.7662C123.625 32.4789 123.171 33.1025 122.547 33.637C121.941 34.1715 121.22 34.5902 120.382 34.8931C119.545 35.1782 118.627 35.3207 117.629 35.3207Z" fill="white"/>
</svg>
