<svg width="46" height="46" viewBox="0 0 46 46" fill="none" xmlns="http://www.w3.org/2000/svg">
<rect x="4" y="4" width="38" height="38" rx="19" fill="#0071E9"/>
<rect x="2" y="2" width="42" height="42" rx="21" stroke="#0061FE" stroke-opacity="0.5" strokeWidth="4"/>
<path d="M19.1317 27.1449C18.4585 27.142 17.8832 26.9645 17.4059 26.6122C16.9286 26.2599 16.5636 25.7472 16.3107 25.0739C16.0579 24.4006 15.9315 23.5895 15.9315 22.6406C15.9315 21.6946 16.0579 20.8864 16.3107 20.2159C16.5664 19.5455 16.9329 19.0341 17.4102 18.6818C17.8903 18.3295 18.4641 18.1534 19.1317 18.1534C19.7994 18.1534 20.3718 18.331 20.8491 18.6861C21.3263 19.0384 21.6914 19.5497 21.9442 20.2202C22.1999 20.8878 22.3278 21.6946 22.3278 22.6406C22.3278 23.5923 22.2013 24.4048 21.9485 25.0781C21.6957 25.7486 21.3306 26.2614 20.8533 26.6165C20.3761 26.9688 19.8022 27.1449 19.1317 27.1449ZM19.1317 26.0071C19.7227 26.0071 20.1843 25.7188 20.5167 25.142C20.8519 24.5653 21.0195 23.7315 21.0195 22.6406C21.0195 21.9162 20.9428 21.304 20.7894 20.804C20.6388 20.3011 20.4215 19.9205 20.1374 19.6619C19.8562 19.4006 19.521 19.2699 19.1317 19.2699C18.5437 19.2699 18.082 19.5597 17.7468 20.1392C17.4116 20.7187 17.2425 21.5526 17.2397 22.6406C17.2397 23.3679 17.315 23.983 17.4656 24.4858C17.619 24.9858 17.8363 25.3651 18.1175 25.6236C18.3988 25.8793 18.7369 26.0071 19.1317 26.0071ZM26.8778 27.1449C26.2045 27.142 25.6293 26.9645 25.152 26.6122C24.6747 26.2599 24.3097 25.7472 24.0568 25.0739C23.804 24.4006 23.6776 23.5895 23.6776 22.6406C23.6776 21.6946 23.804 20.8864 24.0568 20.2159C24.3125 19.5455 24.679 19.0341 25.1562 18.6818C25.6364 18.3295 26.2102 18.1534 26.8778 18.1534C27.5455 18.1534 28.1179 18.331 28.5952 18.6861C29.0724 19.0384 29.4375 19.5497 29.6903 20.2202C29.946 20.8878 30.0739 21.6946 30.0739 22.6406C30.0739 23.5923 29.9474 24.4048 29.6946 25.0781C29.4418 25.7486 29.0767 26.2614 28.5994 26.6165C28.1222 26.9688 27.5483 27.1449 26.8778 27.1449ZM26.8778 26.0071C27.4688 26.0071 27.9304 25.7188 28.2628 25.142C28.598 24.5653 28.7656 23.7315 28.7656 22.6406C28.7656 21.9162 28.6889 21.304 28.5355 20.804C28.3849 20.3011 28.1676 19.9205 27.8835 19.6619C27.6023 19.4006 27.267 19.2699 26.8778 19.2699C26.2898 19.2699 25.8281 19.5597 25.4929 20.1392C25.1577 20.7187 24.9886 21.5526 24.9858 22.6406C24.9858 23.3679 25.0611 23.983 25.2116 24.4858C25.3651 24.9858 25.5824 25.3651 25.8636 25.6236C26.1449 25.8793 26.483 26.0071 26.8778 26.0071Z" fill="white"/>
</svg>
