<svg width="16" height="17" viewBox="0 0 16 17" fill="none" xmlns="http://www.w3.org/2000/svg">
<path opacity="0.22" d="M1.33325 6.13385C1.33325 4.64038 1.33325 3.89364 1.6239 3.32321C1.87956 2.82145 2.28751 2.4135 2.78928 2.15784C3.35971 1.86719 4.10645 1.86719 5.59992 1.86719H9.99992V15.2005H5.59992C4.10644 15.2005 3.35971 15.2005 2.78928 14.9099C2.28751 14.6542 1.87956 14.2463 1.6239 13.7445C1.33325 13.1741 1.33325 12.4273 1.33325 10.9339V6.13385Z" fill="#535862"/>
<path d="M9.99992 1.86719L9.99992 15.2005M6.66658 15.2005H9.33325C11.2001 15.2005 12.1335 15.2005 12.8466 14.8372C13.4738 14.5176 13.9837 14.0077 14.3033 13.3805C14.6666 12.6675 14.6666 11.734 14.6666 9.86719V7.20052C14.6666 5.33368 14.6666 4.40026 14.3033 3.68722C13.9837 3.06001 13.4738 2.55008 12.8466 2.2305C12.1335 1.86719 11.2001 1.86719 9.33325 1.86719H6.66659C4.79974 1.86719 3.86632 1.86719 3.15328 2.2305C2.52608 2.55008 2.01614 3.06001 1.69656 3.68722C1.33325 4.40026 1.33325 5.33368 1.33325 7.20052V9.86719C1.33325 11.734 1.33325 12.6675 1.69656 13.3805C2.01614 14.0077 2.52608 14.5176 3.15328 14.8372C3.86632 15.2005 4.79974 15.2005 6.66658 15.2005Z" stroke="#535862" strokeLinecap="round" strokeLinejoin="round"/>
</svg>
