<svg width="17" height="17" viewBox="0 0 17 17" fill="none" xmlns="http://www.w3.org/2000/svg">
<g clip-path="url(#clip0_925_44108)">
<rect width="17" height="17" rx="8.5" fill="#E51C00"/>
<rect x="1.10882" y="1.1087" width="14.7826" height="14.7826" rx="7.3913" fill="#E51C00" stroke="white" strokeWidth="0.73913"/>
<path fillRule="evenodd" clipRule="evenodd" d="M8.7859 8.98127C8.7859 9.13652 8.6599 9.26252 8.50465 9.26252C8.3494 9.26252 8.2234 9.13652 8.2234 8.98127V7.85177C8.2234 7.69654 8.3494 7.57054 8.50465 7.57054C8.6599 7.57054 8.7859 7.69654 8.7859 7.85177V8.98127ZM8.5039 10.3954C8.34865 10.3954 8.22265 10.2784 8.22265 10.1231V10.1048C8.22265 9.94952 8.34865 9.82352 8.5039 9.82352C8.65915 9.82352 8.78515 9.94952 8.78515 10.1048C8.78515 10.26 8.65915 10.3954 8.5039 10.3954ZM11.9393 10.3275L9.32927 5.74654C9.1609 5.45179 8.8579 5.27516 8.51852 5.27441H8.51665C8.17877 5.27441 7.87615 5.44954 7.70739 5.74241L5.06439 10.323C4.89527 10.6155 4.89527 10.9654 5.06402 11.2579C5.23277 11.5508 5.53577 11.7251 5.87364 11.7251H11.1266C11.4638 11.7251 11.7656 11.5515 11.9351 11.2598C12.1046 10.9688 12.1061 10.62 11.9393 10.3275Z" fill="white"/>
</g>
<defs>
<clipPath id="clip0_925_44108">
<rect width="17" height="17" rx="8.5" fill="white"/>
</clipPath>
</defs>
</svg>
