<svg width="20" height="21" viewBox="0 0 20 21" fill="none" xmlns="http://www.w3.org/2000/svg">
<path fillRule="evenodd" clipRule="evenodd" d="M2.5 5.48428C2.5 3.2966 2.52342 2.56761 5.41667 2.56761C8.30991 2.56761 8.33333 3.2966 8.33333 5.48428C8.33333 7.67196 8.34256 8.40094 5.41667 8.40094C2.49077 8.40094 2.5 7.67196 2.5 5.48428Z" stroke="#9496A1" strokeWidth="1.25" strokeLinecap="round" strokeLinejoin="round"/>
<path fillRule="evenodd" clipRule="evenodd" d="M11.6667 5.48428C11.6667 3.2966 11.6902 2.56761 14.5834 2.56761C17.4767 2.56761 17.5001 3.2966 17.5001 5.48428C17.5001 7.67196 17.5093 8.40094 14.5834 8.40094C11.6575 8.40094 11.6667 7.67196 11.6667 5.48428Z" stroke="#9496A1" strokeWidth="1.25" strokeLinecap="round" strokeLinejoin="round"/>
<path fillRule="evenodd" clipRule="evenodd" d="M2.5 14.6509C2.5 12.4633 2.52342 11.7343 5.41667 11.7343C8.30991 11.7343 8.33333 12.4633 8.33333 14.6509C8.33333 16.8386 8.34256 17.5676 5.41667 17.5676C2.49077 17.5676 2.5 16.8386 2.5 14.6509Z" stroke="#9496A1" strokeWidth="1.25" strokeLinecap="round" strokeLinejoin="round"/>
<path fillRule="evenodd" clipRule="evenodd" d="M11.6667 14.6509C11.6667 12.4633 11.6902 11.7343 14.5834 11.7343C17.4767 11.7343 17.5001 12.4633 17.5001 14.6509C17.5001 16.8386 17.5093 17.5676 14.5834 17.5676C11.6575 17.5676 11.6667 16.8386 11.6667 14.6509Z" stroke="#9496A1" strokeWidth="1.25" strokeLinecap="round" strokeLinejoin="round"/>
</svg>
