<svg width="20" height="21" viewBox="0 0 20 21" fill="none" xmlns="http://www.w3.org/2000/svg">
<path d="M6.60008 11.2924C7.77508 11.2924 8.71675 12.2432 8.71675 13.4265V16.2674C8.71675 17.4424 7.77508 18.4007 6.60008 18.4007H3.78341C2.61675 18.4007 1.66675 17.4424 1.66675 16.2674V13.4265C1.66675 12.2432 2.61675 11.2924 3.78341 11.2924H6.60008ZM16.2168 11.2924C17.3835 11.2924 18.3335 12.2432 18.3335 13.4265V16.2674C18.3335 17.4424 17.3835 18.4007 16.2168 18.4007H13.4002C12.2252 18.4007 11.2835 17.4424 11.2835 16.2674V13.4265C11.2835 12.2432 12.2252 11.2924 13.4002 11.2924H16.2168ZM6.60008 1.73428C7.77508 1.73428 8.71675 2.69261 8.71675 3.86844V6.70928C8.71675 7.89261 7.77508 8.84261 6.60008 8.84261H3.78341C2.61675 8.84261 1.66675 7.89261 1.66675 6.70928V3.86844C1.66675 2.69261 2.61675 1.73428 3.78341 1.73428H6.60008ZM16.2168 1.73428C17.3835 1.73428 18.3335 2.69261 18.3335 3.86844V6.70928C18.3335 7.89261 17.3835 8.84261 16.2168 8.84261H13.4002C12.2252 8.84261 11.2835 7.89261 11.2835 6.70928V3.86844C11.2835 2.69261 12.2252 1.73428 13.4002 1.73428H16.2168Z" fill="#0071E9"/>
</svg>
