<svg width="20" height="21" viewBox="0 0 20 21" fill="none" xmlns="http://www.w3.org/2000/svg">
<path d="M3.0144 8.26449H6.63276L7.35656 7.45757C7.66004 7.11924 8.09308 6.92593 8.54764 6.92593H11.0528C11.5074 6.92593 11.9404 7.11925 12.244 7.45761L12.9676 8.26449H16.5861" stroke="#0058E7" strokeWidth="1.5" strokeLinecap="round" strokeLinejoin="round"/>
<path d="M9.79937 17.5755C13.7758 17.5755 16.9994 14.352 16.9994 10.3755C16.9994 6.39907 13.7758 3.17552 9.79937 3.17552C5.82291 3.17552 2.59937 6.39907 2.59937 10.3755C2.59937 14.352 5.82291 17.5755 9.79937 17.5755Z" stroke="#0058E7" strokeWidth="1.5" strokeLinecap="round" strokeLinejoin="round"/>
<path d="M9.80034 12.1226C10.4631 12.1226 11.0003 11.5853 11.0003 10.9226C11.0003 10.2598 10.4631 9.72256 9.80034 9.72256C9.1376 9.72256 8.60034 10.2598 8.60034 10.9226C8.60034 11.5853 9.1376 12.1226 9.80034 12.1226Z" stroke="#0058E7" strokeWidth="1.5" strokeLinecap="round" strokeLinejoin="round"/>
<path d="M2.77832 11.6496C6.60451 11.6496 8.19407 13.663 8.19407 17.3823" stroke="#0058E7" strokeWidth="1.5" strokeLinecap="round" strokeLinejoin="round"/>
<path d="M16.822 11.6496C12.9959 11.6496 11.4062 13.663 11.4062 17.3823" stroke="#0058E7" strokeWidth="1.5" strokeLinecap="round" strokeLinejoin="round"/>
</svg>
