<svg width="20" height="21" viewBox="0 0 20 21" fill="none" xmlns="http://www.w3.org/2000/svg">
<path d="M3.0144 8.26449H6.63276L7.35655 7.45757C7.66004 7.11924 8.09307 6.92593 8.54763 6.92593H11.0528C11.5074 6.92593 11.9404 7.11925 12.2439 7.45761L12.9676 8.26449H16.5861" stroke="#9496A1" strokeWidth="1.5" strokeLinecap="round" strokeLinejoin="round"/>
<path d="M9.79937 17.5755C13.7758 17.5755 16.9994 14.352 16.9994 10.3755C16.9994 6.39907 13.7758 3.17552 9.79937 3.17552C5.82291 3.17552 2.59937 6.39907 2.59937 10.3755C2.59937 14.352 5.82291 17.5755 9.79937 17.5755Z" stroke="#9496A1" strokeWidth="1.5" strokeLinecap="round" strokeLinejoin="round"/>
<path d="M9.8001 12.1226C10.4628 12.1226 11.0001 11.5853 11.0001 10.9226C11.0001 10.2598 10.4628 9.72256 9.8001 9.72256C9.13736 9.72256 8.6001 10.2598 8.6001 10.9226C8.6001 11.5853 9.13736 12.1226 9.8001 12.1226Z" stroke="#9496A1" strokeWidth="1.5" strokeLinecap="round" strokeLinejoin="round"/>
<path d="M2.77832 11.6496C6.6045 11.6496 8.19406 13.663 8.19406 17.3823" stroke="#9496A1" strokeWidth="1.5" strokeLinecap="round" strokeLinejoin="round"/>
<path d="M16.8217 11.6496C12.9955 11.6496 11.406 13.663 11.406 17.3823" stroke="#9496A1" strokeWidth="1.5" strokeLinecap="round" strokeLinejoin="round"/>
</svg>
