<svg width="20" height="21" viewBox="0 0 20 21" fill="none" xmlns="http://www.w3.org/2000/svg">
<path d="M5.16316 11.0149C4.10536 11.0149 3.21023 11.8281 3.06546 12.9195L2.81871 14.7835C2.65215 16.0443 3.59319 17.1689 4.81446 17.1689H15.1847C16.4067 17.1689 17.347 16.0443 17.1804 14.7835L16.9336 12.9195C16.7896 11.8281 15.8937 11.0149 14.836 11.0149" stroke="#9496A1" strokeWidth="1.5" strokeLinecap="round" strokeLinejoin="round"/>
<path d="M5.99609 7.13878C5.99609 10.1071 9.35942 12.9433 10.0001 12.9433C10.6406 12.9433 14.004 10.1071 14.004 7.13878C14.004 4.83529 12.2113 2.96802 10.0001 2.96802C7.78868 2.96802 5.99609 4.83529 5.99609 7.13878Z" stroke="#9496A1" strokeWidth="1.5" strokeLinecap="round" strokeLinejoin="round"/>
<path fillRule="evenodd" clipRule="evenodd" d="M11.1934 7.10487C11.1934 6.41812 10.6594 5.86191 10.0002 5.86191C9.34088 5.86191 8.80688 6.41812 8.80688 7.10487C8.80688 7.79162 9.34088 8.34782 10.0002 8.34782C10.6594 8.34782 11.1934 7.79162 11.1934 7.10487Z" stroke="#9496A1" strokeWidth="1.5" strokeLinecap="round" strokeLinejoin="round"/>
</svg>
