<svg width="20" height="21" viewBox="0 0 20 21" fill="none" xmlns="http://www.w3.org/2000/svg">
<path fillRule="evenodd" clipRule="evenodd" d="M16.5109 15.9348C16.2309 16.2565 15.8267 16.4406 15.4025 16.4406H4.59754C4.17254 16.4406 3.76838 16.2565 3.48838 15.9348C3.20754 15.6123 3.08004 15.1865 3.13921 14.764L3.39171 12.8998C3.49838 12.119 4.17254 11.5298 4.96088 11.5298H7.52671C8.49253 12.5698 9.53336 13.2523 10 13.2523C10.4659 13.2523 11.5067 12.5698 12.4725 11.5298H15.0384C15.8259 11.5298 16.5 12.119 16.6075 12.899L16.86 14.7656C16.9184 15.1865 16.7909 15.6123 16.5109 15.9348ZM10 5.54394C10.8 5.54394 11.45 6.19394 11.45 6.99394C11.45 7.79394 10.8 8.44397 10 8.44397C9.20003 8.44397 8.55003 7.79394 8.55003 6.99394C8.55003 6.19394 9.20003 5.54394 10 5.54394ZM18.0984 14.5965L17.8467 12.7306C17.6542 11.3331 16.4475 10.2798 15.0384 10.2798H13.4567L13.4584 10.2773C14.1167 9.30231 14.5917 8.16894 14.5917 7.02727C14.5917 4.50227 12.5334 2.44394 10 2.44394C7.46671 2.44394 5.40838 4.50227 5.40838 7.02727C5.40838 8.16894 5.88338 9.30231 6.54088 10.2773L6.54338 10.2798H4.96088C3.55088 10.2798 2.34421 11.334 2.15338 12.7315L1.90088 14.594C1.79254 15.3731 2.02754 16.1606 2.54588 16.7548C3.06338 17.3498 3.81088 17.6906 4.59754 17.6906H15.4025C16.1884 17.6906 16.9359 17.3498 17.4534 16.7556C17.9709 16.1606 18.2059 15.3731 18.0984 14.5965Z" fill="#0058E7"/>
</svg>
