<svg width="20" height="21" viewBox="0 0 20 21" fill="none" xmlns="http://www.w3.org/2000/svg">
<path fillRule="evenodd" clipRule="evenodd" d="M14.2399 10.7349H11.5199C11.1199 10.6516 10.8799 10.4016 10.8799 10.0683C10.8799 9.73494 11.1199 9.40161 11.5199 9.40161H14.2399C14.5599 9.40161 14.8799 9.65161 14.8799 10.0683C14.8799 10.4849 14.6399 10.7349 14.2399 10.7349ZM14.2399 13.7349H12.4799C12.1599 13.7349 11.8399 13.4849 11.8399 13.0683C11.8399 12.7349 12.0799 12.4016 12.4799 12.4016H14.2399C14.5599 12.4016 14.8799 12.6516 14.8799 13.0683C14.8799 13.4849 14.5599 13.7349 14.2399 13.7349ZM10.4799 5.65159C10.4799 5.73492 10.3999 5.81826 10.3999 5.81826H8.95988C8.87988 5.81826 8.79988 5.73492 8.79988 5.65159V3.40159C8.79988 3.31826 8.87988 3.23492 8.95988 3.23492H10.3999C10.4799 3.23492 10.4799 3.31826 10.4799 3.40159V5.65159ZM10.1335 15.1408L4.94231 15.1483C4.86231 15.1483 4.78551 15.1149 4.72871 15.0566C4.67191 14.9974 4.63991 14.9174 4.63991 14.8341C4.63991 13.6916 5.53671 12.5383 7.53751 12.5383C9.53908 12.5383 10.4351 13.6874 10.4351 14.8266C10.4351 14.9999 10.2999 15.1408 10.1335 15.1408ZM7.53751 7.65159C8.57428 7.65159 9.41748 8.52994 9.41748 9.60994C9.41748 10.6899 8.57428 11.5683 7.53751 11.5683C6.50071 11.5683 5.65751 10.6899 5.65751 9.60994C5.65751 8.52994 6.50071 7.65159 7.53751 7.65159ZM13.5999 4.23492H11.6799V3.40159C11.6799 2.65159 11.1199 1.98492 10.3999 1.98492H8.95988C8.23988 1.98492 7.59991 2.56826 7.59991 3.40159V4.23492H5.83991C3.67991 4.23492 2.15991 5.90159 2.15991 8.23492V14.1516C2.15991 16.4849 3.67991 18.1516 5.83991 18.1516H13.5999C15.7599 18.1516 17.2799 16.4849 17.2799 14.1516V8.23492C17.2799 5.90159 15.7599 4.23492 13.5999 4.23492Z" fill="#0058E7"/>
</svg>
