<svg width="20" height="21" viewBox="0 0 20 21" fill="none" xmlns="http://www.w3.org/2000/svg">
<path d="M11.5691 4.56305H13.7245C15.7693 4.56305 17.0381 6.06711 17.0381 8.19711V13.9409C17.0381 16.0644 15.7693 17.5685 13.7175 17.5685H6.52291C4.47811 17.5685 3.20312 16.0644 3.20312 13.9409V8.19711C3.20312 6.06711 4.48512 4.56305 6.52291 4.56305H8.66968" stroke="#9496A1" strokeWidth="1.5" strokeLinecap="round" strokeLinejoin="round"/>
<path d="M12.3176 8.93805H14.4426M12.3176 11.6433L14.4426 11.679M13.1143 14.4214H14.4422" stroke="#9496A1" strokeWidth="1.5" strokeLinecap="round" strokeLinejoin="round"/>
<path d="M5.8855 14.6032C5.8855 13.8532 6.45371 12.9192 8.09066 12.9192C9.72834 12.9192 10.2966 13.8468 10.2966 14.5968" stroke="#9496A1" strokeWidth="1.5" strokeLinecap="round" strokeLinejoin="round"/>
<path fillRule="evenodd" clipRule="evenodd" d="M9.49886 9.82944C9.49886 10.6403 8.86838 11.297 8.08998 11.297C7.31164 11.297 6.68115 10.6403 6.68115 9.82944C6.68115 9.01861 7.31164 8.36188 8.08998 8.36188C8.86838 8.36188 9.49886 9.01861 9.49886 9.82944Z" stroke="#9496A1" strokeWidth="1.5" strokeLinecap="round" strokeLinejoin="round"/>
<path fillRule="evenodd" clipRule="evenodd" d="M11.245 6.37681L10.2518 6.89654C10.1716 6.9387 10.0774 6.9387 9.99647 6.89735L8.99703 6.37681C8.80479 6.27627 8.68335 6.07195 8.68335 5.84816V3.40275C8.68335 2.9414 9.04223 2.56761 9.48591 2.56761H10.7554C11.1983 2.56761 11.5579 2.9414 11.5579 3.40275V5.84897C11.5579 6.07275 11.4365 6.27627 11.245 6.37681Z" stroke="#9496A1" strokeWidth="1.5" strokeLinecap="round" strokeLinejoin="round"/>
</svg>
