<svg width="20" height="21" viewBox="0 0 20 21" fill="none" xmlns="http://www.w3.org/2000/svg">
<path d="M6.83498 16.962C5.17703 16.9253 3.86235 15.5515 3.89894 13.8936V5.48791C3.93786 3.85643 5.27511 2.55576 6.90736 2.56277H11.4282C11.875 2.56277 12.3023 2.74413 12.6113 3.06638L15.6446 6.22581C15.9373 6.53172 16.1015 6.9388 16.1015 7.36146V13.8936C16.1125 15.5375 14.8188 16.8958 13.1756 16.9627M6.83498 16.962C6.85911 16.962 6.88323 16.9627 6.90736 16.9627H13.1756M6.83498 16.962C6.85911 16.962 13.1756 16.9627 13.1756 16.9627" stroke="#9496A1" strokeWidth="1.5" strokeLinecap="round" strokeLinejoin="round"/>
<path d="M11.8164 2.61279V4.92691C11.8157 6.05633 12.7302 6.97248 13.8597 6.97482H16.0508" stroke="#9496A1" strokeWidth="1.5" strokeLinecap="round" strokeLinejoin="round"/>
<path d="M7.26074 12.7056L9.01679 10.412L11.0201 11.9927L12.7383 9.76285" stroke="#9496A1" strokeWidth="1.5" strokeLinecap="round" strokeLinejoin="round"/>
</svg>
