<svg width="20" height="21" viewBox="0 0 20 21" fill="none" xmlns="http://www.w3.org/2000/svg">
<path fillRule="evenodd" clipRule="evenodd" d="M14.1803 6.46034C14.7411 6.46617 15.5203 6.46867 16.1811 6.46617C16.5194 6.46534 16.6911 6.05701 16.4569 5.81034C16.0328 5.36534 15.4419 4.74451 14.8486 4.12117C14.2528 3.49534 13.6544 2.86701 13.2194 2.41034C12.9786 2.15784 12.5586 2.33117 12.5586 2.68117V4.82201C12.5586 5.72034 13.2911 6.46034 14.1803 6.46034Z" fill="#0058E7"/>
<path fillRule="evenodd" clipRule="evenodd" d="M13.0032 10.2092L11.0857 12.6834C10.9841 12.8151 10.8332 12.9001 10.6682 12.9209C10.5032 12.9401 10.3366 12.8951 10.2066 12.7926L8.46658 11.4276L6.89241 13.4734C6.76908 13.6334 6.58408 13.7176 6.39574 13.7176C6.26324 13.7176 6.12908 13.675 6.01574 13.5876C5.74241 13.3776 5.69158 12.9851 5.90158 12.7109L7.85991 10.1651C7.96158 10.0334 8.11241 9.94755 8.27741 9.92672C8.44158 9.90505 8.60991 9.95172 8.74158 10.0542L10.4832 11.4209L12.0149 9.44338C12.2257 9.17172 12.6182 9.12005 12.8916 9.33255C13.1649 9.54338 13.2149 9.93588 13.0032 10.2092ZM16.5424 7.64673H14.0741C12.6024 7.63839 11.3882 6.42006 11.3882 4.93423V2.31923C11.3882 2.11589 11.2274 1.94589 11.0182 1.94589H6.72408C4.72158 1.94589 3.09741 3.59423 3.09741 5.60839V14.3634C3.09741 16.475 4.80241 18.1884 6.89324 18.1884H13.2857C15.2882 18.1884 16.9041 16.5559 16.9041 14.5417V8.01256C16.9041 7.80923 16.7432 7.64673 16.5424 7.64673Z" fill="#0058E7"/>
</svg>
