<svg width="20" height="21" viewBox="0 0 20 21" fill="none" xmlns="http://www.w3.org/2000/svg">
<path fillRule="evenodd" clipRule="evenodd" d="M15.5 11.0337H16.875V12.6504C16.875 13.2671 16.375 13.7587 15.7667 13.7587H15.625C15.4167 13.0421 14.85 12.4671 14.125 12.2587V7.70039L16.075 8.55872C16.5583 8.76706 16.875 9.25039 16.875 9.78372H15.5C15.15 9.78372 14.875 10.0671 14.875 10.4087C14.875 10.7587 15.15 11.0337 15.5 11.0337ZM13.5 15.3587C13.0417 15.3587 12.6667 15.0504 12.5583 14.6337C12.5333 14.5504 12.525 14.4671 12.525 14.3837C12.525 14.0837 12.6583 13.8171 12.875 13.6421C13.0417 13.5004 13.2583 13.4171 13.5 13.4171C13.7417 13.4171 13.9583 13.5004 14.125 13.6504C14.3333 13.8254 14.4667 14.0921 14.4667 14.3837C14.4667 14.9254 14.0333 15.3587 13.5 15.3587ZM7.46667 6.91706H4.49167C4.15 6.91706 3.86667 6.63372 3.86667 6.29206C3.86667 5.94206 4.15 5.66706 4.49167 5.66706H7.46667C7.80833 5.66706 8.09167 5.94206 8.09167 6.29206C8.09167 6.63372 7.80833 6.91706 7.46667 6.91706ZM6.85 14.3921C6.85 14.4171 6.85 14.4337 6.84167 14.4587C6.80833 14.9671 6.39167 15.3587 5.875 15.3587C5.35 15.3587 4.91667 14.9337 4.90833 14.4004V14.3837C4.90833 13.8504 5.34167 13.4171 5.875 13.4171C6.41667 13.4171 6.85 13.8504 6.85 14.3837V14.3921ZM16.575 7.41706L14.125 6.33372V5.88372C14.125 4.58372 13.0667 3.52539 11.7667 3.52539H4.20833C2.91667 3.52539 1.875 4.57539 1.875 5.85872V7.63227C1.875 7.77091 1.98669 7.88308 2.12532 7.88231C2.84517 7.87827 4.91901 7.86706 5.7 7.86706C6.04167 7.86706 6.325 8.15039 6.325 8.49206C6.325 8.84206 6.04167 9.11706 5.7 9.11706C4.75281 9.11706 2.81527 9.11156 2.1256 9.10947C1.98722 9.10906 1.875 9.22114 1.875 9.35947V12.6504C1.875 13.7754 2.675 14.7254 3.73333 14.9504C3.975 15.9004 4.85 16.6087 5.875 16.6087C6.88333 16.6087 7.74167 15.9337 8.00833 15.0087H11.3667C11.6333 15.9337 12.4917 16.6087 13.5 16.6087C14.5083 16.6087 15.3583 15.9337 15.625 15.0087H15.7667C17.0667 15.0087 18.125 13.9504 18.125 12.6504V9.78372C18.125 8.75039 17.5167 7.81706 16.575 7.41706Z" fill="#0058E7"/>
</svg>
