<svg width="20" height="21" viewBox="0 0 20 21" fill="none" xmlns="http://www.w3.org/2000/svg">
<path d="M2.79956 8.16731H6.36055M4.30991 6.15933H6.36089" stroke="#9496A1" strokeWidth="1.5" strokeLinecap="round" strokeLinejoin="round"/>
<path d="M4.5083 14.3869L4.46291 14.3869C3.54445 14.3869 2.79956 13.6109 2.79956 12.6543V10.5608" stroke="#9496A1" strokeWidth="1.5" strokeLinecap="round" strokeLinejoin="round"/>
<path d="M7.57495 14.3869H11.8236" stroke="#9496A1" strokeWidth="1.5" strokeLinecap="round" strokeLinejoin="round"/>
<path d="M13.357 12.7897L13.3572 5.88393C13.3572 4.9272 12.6124 4.15128 11.6939 4.15128H2.79956" stroke="#9496A1" strokeWidth="1.5" strokeLinecap="round" strokeLinejoin="round"/>
<path d="M14.8907 14.3868L15.5366 14.3869C16.455 14.3869 17.1998 13.611 17.1998 12.6543V9.78486C17.1998 9.00486 16.7578 8.29789 16.0728 7.9833L13.3579 6.73549" stroke="#9496A1" strokeWidth="1.5" strokeLinecap="round" strokeLinejoin="round"/>
<path d="M15.2781 10.4102H17.199" stroke="#9496A1" strokeWidth="1.5" strokeLinecap="round" strokeLinejoin="round"/>
<path fillRule="evenodd" clipRule="evenodd" d="M7.57675 14.387C7.57675 13.5049 6.89023 12.7898 6.04338 12.7898C5.19652 12.7898 4.51001 13.5049 4.51001 14.387C4.51001 15.2692 5.19652 15.9843 6.04338 15.9843C6.89023 15.9843 7.57675 15.2692 7.57675 14.387Z" stroke="#9496A1" strokeWidth="1.5" strokeLinecap="round" strokeLinejoin="round"/>
<path fillRule="evenodd" clipRule="evenodd" d="M14.8897 14.387C14.8897 13.5049 14.2032 12.7898 13.3564 12.7898C12.5095 12.7898 11.823 13.5049 11.823 14.387C11.823 15.2692 12.5095 15.9843 13.3564 15.9843C14.2032 15.9843 14.8897 15.2692 14.8897 14.387Z" stroke="#9496A1" strokeWidth="1.5" strokeLinecap="round" strokeLinejoin="round"/>
</svg>
