<svg id="Layer_1" enable-background="new 0 0 512 512" height="512" viewBox="0 0 512 512" width="512" xmlns="http://www.w3.org/2000/svg"><g><path d="m294.242 466.697c-9.307 1.03-28.029 2.065-37.391 2.083-10.039.023-30.089-1.25-40.091-2.083-33.994-2.815-60.691-27.169-60.691-60.687l-3.012 17.615c0 34.369 29.709 57.875 63.703 60.691 10.002.824 30.052 2.101 40.091 2.083 9.362-.023 28.084-1.062 37.391-2.083 32.79-3.616 63.699-26.322 63.699-60.691l-3.012-17.615c-.001 33.518-27.897 57.066-60.687 60.687z" fill="#003d58"/><path d="m294.242 45.302c-9.307-1.025-28.029-2.064-37.391-2.078-10.039-.023-30.089 1.25-40.091 2.078-33.994 2.811-60.691 27.169-60.691 60.686l-3.012-17.615c0-34.369 29.709-57.871 63.703-60.691 10.002-.824 30.052-2.101 40.091-2.083 9.362.023 28.084 1.062 37.391 2.083 32.79 3.621 63.699 26.322 63.699 60.691l-3.012 17.615c-.001-33.517-27.897-57.069-60.687-60.686z" fill="#003d58"/><path d="m354.928 416.851c0 33.514-27.897 57.075-60.686 60.687-9.307 1.03-28.029 2.069-37.391 2.083-10.039.018-30.089-1.254-40.091-2.083-33.994-2.811-60.691-27.173-60.691-60.687v-316.117c0-33.513 27.443-57.189 60.691-60.691 9.59-.998 24.07-1.703 38.526-1.703 14.598 0 29.247.934 38.956 1.703 34.113 2.715 60.686 27.177 60.686 60.691z" fill="#369fd9"/><path d="m322.463 226.085c-41.858-17.336-86.592-15.976-134.63-.934-4.82-22.499-19.162-59.473-17.436-81.45 53.531-23.067 116.332-23.269 170.125-.508 1.47 22.411-13.833 57.426-18.059 82.892z" fill="#003651"/><path d="m322.463 327.339c-41.858 17.341-86.592 15.985-134.63.938-4.82 22.504-4.294 38.402-2.866 63.538 44.362 26.395 96.406 26.619 140.979.586 1.223-25.644.743-39.592-3.483-65.062z" fill="#003651"/><path d="m294.242 40.043c-9.709-.769-24.358-1.703-38.956-1.703-14.456 0-28.935.705-38.526 1.703-33.248 3.502-60.691 27.177-60.691 60.691v316.117c0 33.514 26.697 57.876 60.691 60.687 10.002.829 30.052 2.101 40.091 2.083 9.362-.014 28.084-1.053 37.391-2.083 32.79-3.612 60.686-27.173 60.686-60.687v-316.117c0-33.514-26.573-57.976-60.686-60.691zm54.36 366.76c0 31.394-26.12 53.445-56.828 56.832-8.711.961-26.248 1.932-35.015 1.95-9.398.014-28.171-1.176-37.537-1.95-31.833-2.632-56.828-25.438-56.828-56.832v-295.998c0-31.385 25.699-53.559 56.828-56.832 8.972-.938 22.536-1.598 36.072-1.598 13.674 0 27.397.879 36.48 1.598 31.948 2.545 56.828 25.447 56.828 56.832z" fill="#369fd9"/><path d="m190.274 161.777c46.944-20.238 101.011-22.875 149.878-7.874.426-3.795.586-7.393.371-10.712-53.792-22.76-116.593-22.559-170.125.508-1.726 21.977 12.616 58.951 17.436 81.45 4.701-1.478 9.384-2.815 14.026-4.028-5.837-20.264-12.818-43.642-11.586-59.344z" fill="#115273" opacity=".68"/><path d="m197.923 195.876c-6.125 0-12.181-.164-18.146-.462 3.127 10.904 6.253 21.327 8.057 29.736 48.038-15.042 92.771-16.402 134.63.934 3.342-20.142 13.605-46.258 17.029-67.388-28.808 22.271-81.419 37.18-141.57 37.18z" fill="#003651"/><path d="m318.783 367.457c-40.059 29.522-86.825 29.261-126.687-.668-2.047-8.176-4.523-16.173-6.766-23.983-2.014 15.679-1.47 29.6-.361 49.009 44.362 26.395 96.406 26.619 140.979.586.893-18.787.865-31.311-.865-46.674-1.919 6.812-4.098 13.949-6.3 21.73z" fill="#115273" opacity=".68"/><path d="m257.561 363.942c24.303 0 47.544 2.234 68.963 6.308-.078-13.802-1.218-25.745-4.06-42.911-41.858 17.341-86.592 15.985-134.63.938-3.365 15.706-4.129 28.208-3.786 42.87 22.655-4.637 47.484-7.205 73.513-7.205z" fill="#003651"/><path d="m156.069 269.124v49.833c32.786-2.243 72.369-7.064 114.722-14.37 30.263-5.219 58.777-11.16 84.138-17.368v-53.431c-28.249 2.618-60.32 6.867-94.163 12.708-38.76 6.675-74.635 14.544-104.697 22.628z" fill="#369fd9"/><path d="m348.369 376.137-16.265-49.027v-98.393l16.265-80.284z" fill="#003651"/><path d="m162.464 376.137 16.269-49.027v-98.393l-16.269-80.284z" fill="#003651"/><path d="m171.4 143.284c.092-.682.229-1.401.43-2.161l14.402-56.901c2.513-9.33 10.689-20.824 20.609-27.869-1.314.375-2.623.778-3.901 1.217-8.761 7.224-15.651 17.528-18.017 26.308l-14.397 56.901c-.705 2.623-.787 4.907-.261 6.816 0-1.341.037-2.642.133-3.895.334-.146.667-.27 1.002-.416z" fill="#369fd9"/><path d="m340.532 149.395c1.236-2.229 1.392-5.113.458-8.611l-14.406-56.91c-2.403-8.908-9.466-19.391-18.411-26.629-1.264-.412-2.541-.788-3.841-1.131 10.075 7.018 18.398 18.668 20.943 28.102l14.397 56.906c.183.659.298 1.282.394 1.881.146.064.306.119.457.188.128 1.978.123 4.052.009 6.204z" fill="#369fd9"/><g><path d="m205.723 55.598c3.383 3.058-5.356 6.908-16.983 14.965-11.504 7.796-16.534 12.868-18.347 7.004-1.602-5.37.874-17.299 11.06-22.399 10.011-5.402 21.034-2.889 24.27.43z" fill="#a8c6e8"/><g><path d="m188.955 63.275c0 .957-3.241 11.284-7.237 11.284-3.992 0-7.237-10.328-7.237-11.284 0-.952 3.245-1.725 7.237-1.725 3.996-.001 7.237.772 7.237 1.725z" fill="#003d58" opacity=".42"/><path d="m188.955 62.354c0 .953-3.241 1.721-7.237 1.721-3.992 0-7.237-.769-7.237-1.721 0-.961 3.245-1.725 7.237-1.725 3.996 0 7.237.764 7.237 1.725z" fill="#a8c6e8"/></g><g fill="#a8c6e8"><path d="m205.723 55.598c-.384-.389-.874-.764-1.447-1.117.531 2.902-7.448 6.734-17.679 13.825-8.409 5.694-13.348 9.91-16.114 9.498 1.886 5.448 6.926.435 18.256-7.242 11.628-8.056 20.367-11.906 16.984-14.964z"/><path d="m180.756 57.035c10.492-5.667 22.037-3.035 25.429.444.06.055.083.105.133.156.261-.732.101-1.401-.595-2.037-3.236-3.319-14.26-5.832-24.271-.43-4.88 2.44-7.975 6.45-9.719 10.561 1.932-3.434 4.853-6.611 9.023-8.694z"/></g></g><g><path d="m307.572 55.598c-3.387 3.058 5.347 6.908 16.974 14.965 11.504 7.796 16.544 12.868 18.352 7.004 1.597-5.37-.87-17.299-11.06-22.399-10.015-5.402-21.034-2.889-24.266.43z" fill="#a8c6e8"/><g><path d="m324.34 63.275c0 .957 3.241 11.284 7.233 11.284 3.996 0 7.237-10.328 7.237-11.284 0-.952-3.241-1.725-7.237-1.725-3.992-.001-7.233.772-7.233 1.725z" fill="#003d58" opacity=".42"/><path d="m324.34 62.354c0 .953 3.241 1.721 7.233 1.721 3.996 0 7.237-.769 7.237-1.721 0-.961-3.241-1.725-7.237-1.725-3.992 0-7.233.764-7.233 1.725z" fill="#a8c6e8"/></g><g fill="#a8c6e8"><path d="m307.572 55.598c.375-.389.861-.764 1.442-1.117-.527 2.902 7.443 6.734 17.679 13.825 8.405 5.694 13.344 9.91 16.113 9.498-1.89 5.448-6.931.435-18.26-7.242-11.627-8.056-20.361-11.906-16.974-14.964z"/><path d="m332.534 57.035c-10.492-5.667-22.037-3.035-25.434.444-.055.055-.078.105-.128.156-.261-.732-.105-1.401.6-2.037 3.232-3.319 14.251-5.832 24.267-.43 4.88 2.44 7.974 6.45 9.714 10.561-1.933-3.434-4.853-6.611-9.019-8.694z"/></g></g><g><path d="m307.82 460.824c-2.371-1.703 8.386-8.231 16.566-14.145 7.714-5.512 6.432-6.889 9.902-3.525 2.874 3.355 7.113 9.21-2.678 13.509-9.769 4.601-22.326 6.381-23.79 4.161z" fill="#a9bee2"/><g><path d="m324.18 451.87c.211-.769 2.399-8.134 4.459-7.805 2.051.316 7.136 6.697 7.631 7.192.306.568-2.307 1.048-5.814 1.282-3.516.233-6.308.022-6.276-.669z" fill="#003d58" opacity=".42"/><path d="m324.171 452.52c.037-.682 2.683-1.501 5.928-1.625 3.246-.137 6.134.362 6.432.916.311.567-2.362 1.066-5.951 1.332-3.585.261-6.441.073-6.409-.623z" fill="#a8c6e8" opacity=".7"/></g><g fill="#a8c6e8"><path d="m307.82 460.824c.233.238.586.43 1.043.586.252-2.33 9.76-8.057 17.084-13.197 5.882-4.083 6.523-5.69 8.207-5.2-3.314-3.154-2.161-1.771-9.769 3.667-8.179 5.913-18.937 12.441-16.565 14.144z"/><path d="m332.008 455.39c-9.778 4.592-22.632 6.303-23.991 3.882-.037-.032-.037-.068-.069-.096-.49.714-.591 1.273-.128 1.648 1.465 2.22 14.021.44 23.79-4.161 4.591-2.092 6.203-4.481 6.102-6.798-.298 1.932-1.987 3.832-5.704 5.525z"/></g></g><g><path d="m203.206 460.824c2.367-1.703-8.391-8.231-16.571-14.145-7.709-5.512-6.431-6.889-9.901-3.525-2.87 3.355-7.118 9.21 2.683 13.509 9.762 4.601 22.314 6.381 23.789 4.161z" fill="#a9bee2"/><g><path d="m186.84 451.87c-.206-.769-2.399-8.134-4.454-7.805-2.046.316-7.146 6.697-7.631 7.192-.302.568 2.303 1.048 5.814 1.282 3.506.233 6.303.022 6.271-.669z" fill="#003d58" opacity=".42"/><path d="m186.84 452.52c-.018-.682-2.673-1.501-5.914-1.625-3.246-.137-6.139.362-6.441.916-.307.567 2.371 1.066 5.96 1.332 3.585.261 6.437.073 6.395-.623z" fill="#a8c6e8" opacity=".7"/></g><g fill="#a8c6e8"><path d="m203.206 460.824c-.229.238-.591.43-1.044.586-.265-2.33-9.769-8.057-17.084-13.197-5.882-4.083-6.528-5.69-8.203-5.2 3.31-3.154 2.156-1.771 9.759 3.667 8.18 5.913 18.938 12.441 16.572 14.144z"/><path d="m179.008 455.39c9.782 4.592 22.632 6.303 23.996 3.882.037-.032.037-.068.069-.096.499.714.6 1.273.133 1.648-1.474 2.22-14.026.44-23.79-4.161-4.591-2.092-6.207-4.481-6.111-6.798.301 1.932 1.995 3.832 5.703 5.525z"/></g></g><path d="m329.705 394.558-.549.352c-.179.105-17.898 11.243-32.602 16.296-14.777 5.077-29.558 5.073-39.427 5.058h-.902c-9.782.009-24.541.018-39.313-5.058-14.708-5.054-32.419-16.191-32.593-16.296l-.554-.352-.371.54c-.568.824-13.6 19.982-16.622 33.399.261.595.531 1.167.811 1.749.151-.096.27-.252.298-.444 2.27-11.971 14.049-30.061 16.269-33.399 3.145 1.936 18.951 11.485 32.323 16.091 14.992 5.15 29.878 5.131 39.867 5.122h.902c9.888.018 24.761.023 39.753-5.122 13.381-4.606 29.178-14.155 32.323-16.091 2.037 3.053 12.062 18.453 15.491 30.217.27-.682.531-1.369.778-2.069-4.271-12.936-15.001-28.702-15.514-29.453z" fill="#369fd9"/><g><path d="m162.437 281.795-.028-4.056 16.306-1.268v4.056z" fill="#369fd9"/></g><g><path d="m348.401 281.795.013-4.056-16.319-1.268v4.056z" fill="#369fd9"/></g><g fill="#369fd9"><path d="m167.985 128.53c3.122 2.994.806 6.047-4.912 7.668-6.011 1.639-11.811 3.946-17.285 6.894-5.173 2.857-8.332 3.044-8.135-2.884.206-5.905-.224-8.427 3.232-11.659 3.016-2.801 10.831-5.228 14.932-5.52 3.598-.185 9.059 2.525 12.168 5.501z"/><path d="m344.015 128.53c-3.117 2.994-.805 6.047 4.917 7.668 6.006 1.639 11.806 3.946 17.276 6.894 5.177 2.857 8.336 3.044 8.139-2.884-.206-5.905.229-8.427-3.232-11.659-3.012-2.801-10.831-5.228-14.932-5.52-3.598-.185-9.055 2.525-12.168 5.501z"/></g></g></svg>